# xmcd CD database file
#
# Track frame offsets:
#	150
#	59952
#	93559
#
# Disc length: 2553 seconds
#
# Revision: 0
# Processed by: cddbd v1.5.2PL0 Copyright (c) Steve Scherf et al.
# Submitted via: CDex 1.70beta2
#
DISCID=2909f703
DTITLE=Harper, Billy - In Europe
DYEAR=1979
DGENRE=Jazz
TTITLE0=priestess
TTITLE1=calvary
TTITLE2=illumination
EXTD=YEAR: 1979
EXTT0=
EXTT1=
EXTT2=
PLAYORDER=
